{
    "asset" : {
        "generator" : "Khronos glTF Blender I/O v1.2.75",
        "version" : "2.0"
    },
    "scene" : 0,
    "scenes" : [
        {
            "name" : "Scene",
            "nodes" : [
                0
            ]
        }
    ],
    "nodes" : [
        {
            "mesh" : 0,
            "name" : "Curve",
            "scale" : [
                430.66302490234375,
                430.66302490234375,
                430.66302490234375
            ]
        }
    ],
    "materials" : [
        {
            "doubleSided" : true,
            "name" : "SVGMat.001",
            "pbrMetallicRoughness" : {}
        }
    ],
    "meshes" : [
        {
            "name" : "Curve",
            "primitives" : [
                {
                    "attributes" : {
                        "POSITION" : 0,
                        "NORMAL" : 1,
                        "TEXCOORD_0" : 2
                    },
                    "indices" : 3,
                    "material" : 0
                }
            ]
        }
    ],
    "accessors" : [
        {
            "bufferView" : 0,
            "componentType" : 5126,
            "count" : 15590,
            "max" : [
                0.16196882724761963,
                0.13981887698173523,
                -0.002654452109709382
            ],
            "min" : [
                -0.15714891254901886,
                -0.13544395565986633,
                -0.007345566991716623
            ],
            "type" : "VEC3"
        },
        {
            "bufferView" : 1,
            "componentType" : 5126,
            "count" : 15590,
            "type" : "VEC3"
        },
        {
            "bufferView" : 2,
            "componentType" : 5126,
            "count" : 15590,
            "type" : "VEC2"
        },
        {
            "bufferView" : 3,
            "componentType" : 5123,
            "count" : 32016,
            "type" : "SCALAR"
        }
    ],
    "bufferViews" : [
        {
            "buffer" : 0,
            "byteLength" : 187080,
            "byteOffset" : 0
        },
        {
            "buffer" : 0,
            "byteLength" : 187080,
            "byteOffset" : 187080
        },
        {
            "buffer" : 0,
            "byteLength" : 124720,
            "byteOffset" : 374160
        },
        {
            "buffer" : 0,
            "byteLength" : 64032,
            "byteOffset" : 498880
        }
    ],
    "buffers" : [
        {
            "byteLength" : 562912,
            "uri" : "data:application/octet-stream;base64,"
        }
    ]
}
