{
    "asset" : {
        "generator" : "Khronos glTF Blender I/O v1.2.75",
        "version" : "2.0"
    },
    "scene" : 0,
    "scenes" : [
        {
            "name" : "Scene",
            "nodes" : [
                0
            ]
        }
    ],
    "nodes" : [
        {
            "mesh" : 0,
            "name" : "Cube",
            "rotation" : [
                -0.36235368251800537,
                0.35936498641967773,
                -0.7058476805686951,
                0.49125924706459045
            ]
        }
    ],
    "materials" : [
        {
            "doubleSided" : true,
            "emissiveFactor" : [
                0,
                0,
                0
            ],
            "name" : "Snowflake",
            "normalTexture" : {
                "index" : 0,
                "texCoord" : 0
            },
            "pbrMetallicRoughness" : {
                "baseColorTexture" : {
                    "index" : 1,
                    "texCoord" : 0
                },
                "metallicFactor" : 0,
                "roughnessFactor" : 0.4000000059604645
            }
        }
    ],
    "meshes" : [
        {
            "name" : "Cube.001",
            "primitives" : [
                {
                    "attributes" : {
                        "POSITION" : 0,
                        "NORMAL" : 1,
                        "TEXCOORD_0" : 2
                    },
                    "indices" : 3,
                    "material" : 0
                }
            ]
        }
    ],
    "textures" : [
        {
            "source" : 0
        },
        {
            "source" : 1
        }
    ],
    "images" : [
        {
            "bufferView" : 4,
            "mimeType" : "image/png",
            "name" : "snowflake_tex_normal"
        },
        {
            "bufferView" : 5,
            "mimeType" : "image/jpeg",
            "name" : "TexturesCom_Ice0044_1_seamless_S"
        }
    ],
    "accessors" : [
        {
            "bufferView" : 0,
            "componentType" : 5126,
            "count" : 35263,
            "max" : [
                15.500609397888184,
                0.20911327004432678,
                13.068026542663574
            ],
            "min" : [
                -15.33172607421875,
                -0.20603427290916443,
                -16.263324737548828
            ],
            "type" : "VEC3"
        },
        {
            "bufferView" : 1,
            "componentType" : 5126,
            "count" : 35263,
            "type" : "VEC3"
        },
        {
            "bufferView" : 2,
            "componentType" : 5126,
            "count" : 35263,
            "type" : "VEC2"
        },
        {
            "bufferView" : 3,
            "componentType" : 5123,
            "count" : 53040,
            "type" : "SCALAR"
        }
    ],
    "bufferViews" : [
        {
            "buffer" : 0,
            "byteLength" : 423156,
            "byteOffset" : 0
        },
        {
            "buffer" : 0,
            "byteLength" : 423156,
            "byteOffset" : 423156
        },
        {
            "buffer" : 0,
            "byteLength" : 282104,
            "byteOffset" : 846312
        },
        {
            "buffer" : 0,
            "byteLength" : 106080,
            "byteOffset" : 1128416
        },
        {
            "buffer" : 0,
            "byteLength" : 784412,
            "byteOffset" : 1234496
        },
        {
            "buffer" : 0,
            "byteLength" : 1043013,
            "byteOffset" : 2018908
        }
    ],
    "buffers" : [
        {
            "byteLength" : 3061924,
            "uri" : "data:application/octet-stream;base64,"
        }
    ]
}
